    <svg xmlns="http://www.w3.org/2000/svg">
        <symbol id="arrow-down" viewBox="0 -960 960 960">
            <path d="M480-200 240-440l56-56 184 183 184-183 56 56-240 240Zm0-240L240-680l56-56 184 183 184-183 56 56-240 240Z"/>
        </symbol>
        <symbol id="arrow-up" viewBox="0 -960 960 960">
            <path d="m296-224-56-56 240-240 240 240-56 56-184-183-184 183Zm0-240-56-56 240-240 240 240-56 56-184-183-184 183Z"/>
        </symbol>
        <symbol id="question" viewBox="0 -960 960 960">
            <path d="M478-240q21 0 35.5-14.5T528-290q0-21-14.5-35.5T478-340q-21 0-35.5 14.5T428-290q0 21 14.5 35.5T478-240Zm-36-154h74q0-33 7.5-52t42.5-52q26-26 41-49.5t15-56.5q0-56-41-86t-97-30q-57 0-92.5 30T342-618l66 26q5-18 22.5-39t53.5-21q32 0 48 17.5t16 38.5q0 20-12 37.5T506-526q-44 39-54 59t-10 73Zm38 314q-83 0-156-31.5T197-197q-54-54-85.5-127T80-480q0-83 31.5-156T197-763q54-54 127-85.5T480-880q83 0 156 31.5T763-763q54 54 85.5 127T880-480q0 83-31.5 156T763-197q-54 54-127 85.5T480-80Zm0-80q134 0 227-93t93-227q0-134-93-227t-227-93q-134 0-227 93t-93 227q0 134 93 227t227 93Zm0-320Z"/>
        </symbol>
        <symbol id="calendar" viewBox="0 0 22 22">
                <path id="Vector" d="M17.876 3.43726H4.12598C3.74628 3.43726 3.43848 3.74506 3.43848 4.12476V17.8748C3.43848 18.2545 3.74628 18.5623 4.12598 18.5623H17.876C18.2557 18.5623 18.5635 18.2545 18.5635 17.8748V4.12476C18.5635 3.74506 18.2557 3.43726 17.876 3.43726Z" stroke="#6B77E5" stroke-width="1.363" stroke-linecap="round" stroke-linejoin="round"/>
                <path id="Vector_2" d="M15.126 2.06274V4.81274" stroke="#6B77E5" stroke-width="1.363" stroke-linecap="round" stroke-linejoin="round"/>
                <path id="Vector_3" d="M6.875 2.06274V4.81274" stroke="#6B77E5" stroke-width="1.363" stroke-linecap="round" stroke-linejoin="round"/>
                <path id="Vector_4" d="M3.43848 7.56226H18.5635" stroke="#6B77E5" stroke-width="1.363" stroke-linecap="round" stroke-linejoin="round"/>
                <path id="Vector_5" d="M14.0928 11.0002L10.0795 14.7815L7.90527 12.719" stroke="#6B77E5" stroke-width="1.363" stroke-linecap="round" stroke-linejoin="round"/>
        </symbol>
    </svg>